<svg width="374" height="813" viewBox="0 0 374 813" fill="none" xmlns="http://www.w3.org/2000/svg">
<path d="M31.6036 635.627C31.6036 635.627 34.0052 665.885 20.9392 685.828C7.87311 705.771 -4.84381 718.488 2.72075 741.901L101.049 692.049L89.0202 623.968L31.6036 635.627Z" fill="#FF2633"/>
<path d="M30.2095 674.455L52.7022 669.969" stroke="white" stroke-width="1.42936" stroke-miterlimit="10" stroke-linecap="round"/>
<path d="M135.279 698.847C135.279 698.847 142.779 729.588 132.631 752.277C122.484 774.966 111.498 790.165 123.157 812.943L216.108 745.339L192.448 677.261L135.279 698.847Z" fill="#FF2633"/>
<path d="M140.1 743.375L163.495 738.423" stroke="white" stroke-width="1.49021" stroke-miterlimit="10" stroke-linecap="round"/>
<path d="M63.5191 222.329C63.5191 222.329 57.5058 192.028 68.0877 181.371C78.6695 170.714 95.8931 166.042 104.805 167.797C110.865 169.007 118.736 171.774 119.815 187.647C120.894 203.52 118.511 208.82 118.511 208.82C118.511 208.82 112.554 229.768 101.128 231.775C89.7016 233.783 67.4591 233.727 63.5191 222.329Z" fill="#F3ABAA"/>
<path d="M104.6 169.129C104.6 169.129 105.276 176.765 106.092 188.726" stroke="#FF2633" stroke-width="0.844939" stroke-miterlimit="10" stroke-linecap="round"/>
<path d="M90.0125 171.924C90.0125 171.924 91.3164 182.797 93.399 194.823C94.8812 203.323 103.427 205.931 106.945 198.754" stroke="#FF2633" stroke-width="0.844939" stroke-miterlimit="10" stroke-linecap="round"/>
<path d="M78.0708 178.388C78.0708 178.388 79.947 193.088 80.5661 197.15C81.1853 201.212 83.7651 204.101 86.5981 204.101C91.0072 204.101 92.8178 202.094 93.8685 198.754" stroke="#FF2633" stroke-width="0.844939" stroke-miterlimit="10" stroke-linecap="round"/>
<path d="M80.5836 200.105C80.5836 200.105 78.4448 204.195 76.3059 204.946C74.167 205.696 69.8799 205.884 68.6134 202.919C67.544 200.415 66.9061 197.141 67.1218 192.122" stroke="#FF2633" stroke-width="0.844939" stroke-miterlimit="10" stroke-linecap="round"/>
<path d="M99.469 213.886C99.469 213.886 92.4802 206.616 95.6228 196.719C98.7655 186.822 103.306 192.028 103.306 192.028C103.306 192.028 113.147 201.165 115.717 204.608C117.743 207.329 120.952 214.927 117.809 219.28C115.234 222.766 111.963 225.68 108.203 227.835C106.946 228.483 103.447 231.128 97.8836 228.539C97.4146 228.314 90.2099 223.117 99.469 213.886Z" fill="#F3ABAA"/>
<path d="M238.955 479.763C238.955 479.763 258.242 455.851 262.52 430.982L115.313 403.664L35.6675 449.997C15.32 460.363 -7.92629 490.899 2.89945 540.75C12.5526 585.216 23.0687 646.296 23.1719 646.953C36.0997 653.912 51.0226 656.23 65.4523 653.519C77.2525 651.139 88.3461 646.074 97.8732 638.716C97.5355 636.643 81.5127 569.737 75.096 534.239C72.9478 522.353 73.126 512.269 83.7735 506.556C83.7735 506.556 107.695 495.552 115.313 491.63C118.943 489.754 125.172 486.002 131.42 482.137C114.534 503.319 109.928 510.918 107.029 515.777C97.5355 531.725 85.2839 544.024 93.0514 597.073C96.6443 621.614 105.641 645.189 118.38 683.22C121.251 691.775 124.3 701.044 127.527 711.26C127.527 711.26 149.225 714.656 170.595 707.507C193.401 699.909 202.622 681.644 202.622 681.644C163.222 590.732 163.353 576.51 173.991 551.66C178.381 541.359 213.757 508.141 238.955 479.763Z" fill="#0D0F44"/>
<path d="M132.537 478.037L128.701 464.491" stroke="white" stroke-width="0.844939" stroke-miterlimit="10" stroke-linecap="round"/>
<path d="M123.654 699.149C123.654 699.149 160.015 707.592 188.571 681.372" stroke="white" stroke-width="0.844939" stroke-miterlimit="10" stroke-linecap="round"/>
<path d="M21.1194 635.217C21.1194 635.217 42.2549 647.009 66.5425 639.045" stroke="white" stroke-width="0.844939" stroke-miterlimit="10" stroke-linecap="round"/>
<path d="M304.368 307.696C288.749 266.701 248.026 239.683 220.971 232.15C207.579 227.087 192.986 226.108 179.037 229.336C141.513 232.413 107.207 271.269 107.207 271.269C106.747 257.507 106.456 236.56 106.372 229.937C106.359 228.54 105.82 227.2 104.861 226.184C101.475 222.629 92.7599 214.702 83.1068 215.865C76.6656 216.698 70.5691 219.255 65.461 223.267C63.9117 224.482 62.7697 226.142 62.187 228.023C28.3496 338.203 38.1715 363.551 54.0161 373.739C68.9789 383.364 80.8929 373.626 94.6455 365.296C93.5573 373.945 92.6661 383.12 92.0469 392.923C92.0469 392.923 89.9174 412.004 106.203 420.363C140.66 438.027 171.157 454.904 260.24 436.573C260.24 436.573 263.251 429.856 266.91 418.533C272.576 419.719 278.437 419.61 284.056 418.214C289.674 416.819 294.905 414.174 299.359 410.475C317.192 399.002 322.023 354.029 304.368 307.696Z" fill="#22319E"/>
<path d="M258.981 293.822C258.981 293.822 264.891 329.047 262.517 339.732" stroke="white" stroke-width="0.844939" stroke-miterlimit="10" stroke-linecap="round"/>
<path d="M140.313 257.658C140.313 257.658 114.506 275.885 96.5597 356.478" stroke="white" stroke-width="0.844939" stroke-miterlimit="10" stroke-linecap="round"/>
<path d="M272.791 364.99C277.094 362.835 277.418 354.767 273.514 346.971C269.61 339.174 262.956 334.601 258.652 336.756C254.348 338.911 254.024 346.978 257.929 354.775C261.833 362.572 268.487 367.145 272.791 364.99Z" fill="#F3ABAA"/>
<path d="M234.732 117.758C234.732 117.758 246.927 125.329 246.43 144.147C246.43 144.147 252.293 141.905 256.43 144.335C262.912 148.087 266.215 163.556 257.171 180.386C257.171 180.386 247.865 208.266 235.717 200.583L199.693 158.538L234.732 117.758Z" fill="#0D0F44"/>
<path d="M198.651 188.773C197.338 206.991 184.664 233.999 184.664 233.999C184.664 233.999 197.798 248.68 232.273 240.35C232.273 240.35 233.633 222.629 233.821 217.244C234.656 193.998 230.941 185.639 230.669 189.711L198.651 188.773Z" fill="#F3ABAA"/>
<path d="M192.039 215.818C192.039 215.818 216.43 221.447 233.738 202.826C233.691 202.066 233.644 201.343 233.588 200.649L196.364 201.794C195.153 206.578 193.606 211.4 192.039 215.818Z" fill="#0D0F44"/>
<path d="M210.652 210.152C231.407 210.152 248.233 193.327 248.233 172.571C248.233 151.816 231.407 134.991 210.652 134.991C189.897 134.991 173.072 151.816 173.072 172.571C173.072 193.327 189.897 210.152 210.652 210.152Z" fill="#F3ABAA"/>
<path d="M247.379 181.39C245.071 185.865 242.613 185.424 241.91 183.979C239.977 179.964 241.563 176.474 239.508 163.341C238.767 159.026 236.488 155.127 233.092 152.365C223.026 143.622 206.825 145.751 206.515 145.798C202.547 146.014 198.71 147.365 195.173 148.368C166.777 156.436 165.848 138.34 165.848 130.488C165.848 117.205 176.336 106.426 189.301 106.426C193.384 106.449 197.39 107.543 200.918 109.599C204.446 111.655 207.372 114.601 209.405 118.143C213.169 114.531 218.184 112.514 223.401 112.514C234.78 112.514 244.039 121.989 244.039 133.668C244.049 137.139 243.218 140.56 241.619 143.64C246.741 147.111 249.002 154.992 249.743 158.05C251.31 164.476 250.175 175.958 247.379 181.39Z" fill="#0D0F44"/>
<path d="M217.097 167.963C217.437 165.045 216.552 162.545 215.121 162.378C213.691 162.212 212.256 164.442 211.916 167.36C211.576 170.278 212.461 172.778 213.891 172.945C215.322 173.111 216.757 170.881 217.097 167.963Z" fill="#0D0F44"/>
<path d="M197.596 165.684C197.936 162.766 197.052 160.266 195.621 160.099C194.19 159.933 192.755 162.163 192.416 165.081C192.076 167.999 192.96 170.5 194.391 170.666C195.822 170.833 197.257 168.602 197.596 165.684Z" fill="#0D0F44"/>
<path d="M214.525 190.883C214.525 190.883 221.373 193.594 224.206 184.983" stroke="#0D0F44" stroke-width="0.844939" stroke-miterlimit="10" stroke-linecap="round"/>
<path d="M251.155 188.875C256.667 184.861 258.93 178.579 256.21 174.843C253.49 171.107 246.816 171.332 241.304 175.345C235.792 179.359 233.529 185.641 236.25 189.377C238.97 193.113 245.644 192.888 251.155 188.875Z" fill="#F3ABAA"/>
<path d="M241.907 183.979L253.005 179.232" stroke="#0D0F44" stroke-width="0.844939" stroke-miterlimit="10" stroke-linecap="round"/>
<path d="M204.638 167.769L202.19 178.238C202.119 178.542 202.112 178.857 202.17 179.164C202.228 179.471 202.349 179.763 202.525 180.02C202.702 180.278 202.93 180.496 203.195 180.661C203.46 180.825 203.757 180.933 204.066 180.977L206.58 181.38" stroke="#0D0F44" stroke-width="0.844939" stroke-miterlimit="10" stroke-linecap="round"/>
<path d="M233.12 437.521L120.201 419.246C115.933 418.556 112.087 416.27 109.441 412.851C106.796 409.432 105.548 405.136 105.951 400.831L113.315 322.031C114.112 313.588 121.495 308.222 129.985 307.846C147.631 307.077 167.734 306.449 191.74 308.625C214.846 310.726 232.257 313.381 245.653 315.661C261.404 318.334 267.174 327.303 266.02 339.592L258.712 417.717C258.431 420.739 257.532 423.67 256.07 426.33C254.609 428.989 252.617 431.32 250.217 433.177C247.817 435.034 245.061 436.378 242.12 437.125C239.179 437.872 236.116 438.007 233.12 437.521Z" fill="white"/>
<path d="M165.11 403.383L157.755 393.843L146.554 396.741C150.575 385.888 155.772 375.507 162.051 365.784L178.449 376.685C173.069 385.086 168.598 394.036 165.11 403.383ZM178.449 376.685L170.25 371.216L178.449 376.675V376.685Z" fill="#FF2633"/>
<path d="M188.337 404.79C184.584 389.865 183.421 372.942 183.374 372.229L203.074 370.934C203.074 371.094 204.153 386.816 207.474 399.968L196.217 395.831L188.337 404.79Z" fill="#FF2633"/>
<path d="M162.058 365.756C161.899 365.981 160.323 368.364 158.109 372.201C161.959 377.809 167.614 381.931 174.132 383.88C176.533 379.584 178.334 376.844 178.447 376.685L170.248 371.225L162.058 365.756Z" fill="#0D0F44"/>
<path d="M203.036 370.934L183.335 372.229C183.335 372.623 183.729 377.998 184.686 385.259C191.658 385.03 198.343 382.436 203.645 377.904C203.223 373.767 203.036 371 203.036 370.934Z" fill="#0D0F44"/>
<path d="M213.3 354.138C213.936 338.856 201.123 325.915 184.682 325.231C168.241 324.548 154.399 336.382 153.763 351.663C153.128 366.944 165.941 379.886 182.382 380.569C198.823 381.253 212.665 369.419 213.3 354.138Z" fill="#FF2633"/>
<path d="M186.48 340.53L188.487 346.384C188.597 346.694 188.78 346.973 189.02 347.198C189.26 347.424 189.55 347.588 189.866 347.678L195.833 349.329C196.197 349.432 196.526 349.635 196.782 349.914C197.038 350.194 197.211 350.539 197.281 350.912C197.351 351.284 197.316 351.669 197.18 352.023C197.043 352.376 196.81 352.685 196.508 352.913L191.564 356.665C191.301 356.863 191.09 357.122 190.95 357.419C190.809 357.717 190.743 358.044 190.757 358.373L191.03 364.555C191.045 364.934 190.955 365.31 190.769 365.64C190.582 365.971 190.307 366.242 189.974 366.425C189.642 366.607 189.265 366.693 188.886 366.673C188.507 366.652 188.142 366.526 187.831 366.309L182.765 362.754C182.495 362.565 182.183 362.445 181.856 362.404C181.529 362.363 181.197 362.403 180.889 362.519L175.091 364.677C174.736 364.808 174.352 364.838 173.981 364.762C173.61 364.687 173.267 364.51 172.992 364.251C172.716 363.991 172.518 363.661 172.42 363.295C172.322 362.93 172.327 362.544 172.436 362.182L174.247 356.271C174.347 355.954 174.368 355.617 174.308 355.29C174.247 354.963 174.107 354.655 173.9 354.395L170.007 349.508C169.773 349.21 169.627 348.854 169.584 348.478C169.542 348.102 169.605 347.722 169.767 347.38C169.929 347.038 170.183 346.748 170.5 346.542C170.817 346.336 171.186 346.223 171.564 346.215L177.755 346.102C178.086 346.094 178.41 346.003 178.698 345.84C178.986 345.676 179.229 345.444 179.406 345.164L182.83 340.005C183.041 339.678 183.34 339.418 183.694 339.257C184.047 339.095 184.439 339.039 184.824 339.094C185.209 339.15 185.569 339.315 185.863 339.569C186.156 339.824 186.37 340.157 186.48 340.53Z" fill="#FFD550"/>
<path d="M133.533 314.338C133.533 314.338 120.718 312.987 119.602 324.226L118.439 335.483" stroke="#DADEEB" stroke-width="1.26741" stroke-miterlimit="10" stroke-linecap="round"/>
<path d="M231.113 320.192C231.113 320.192 246.123 321.383 254.716 327.275" stroke="#DADEEB" stroke-width="1.26741" stroke-miterlimit="10" stroke-linecap="round"/>
<path d="M241.301 359.076C241.301 359.076 244.35 345.323 260.138 350.417C275.926 355.511 281.611 365.981 281.555 370.915C281.555 373.204 283.056 415.55 270.42 419.049C265.016 420.55 242.277 418.899 237.736 399.293C233.196 379.686 241.301 359.076 241.301 359.076Z" fill="#F3ABAA"/>
<path d="M244.404 357.491C244.404 357.491 255.877 359.142 261.525 363.842" stroke="#FF2633" stroke-width="0.844939" stroke-miterlimit="10" stroke-linecap="round"/>
<path d="M241.43 369.433C241.43 369.433 252.903 371.084 258.55 375.784" stroke="#FF2633" stroke-width="0.844939" stroke-miterlimit="10" stroke-linecap="round"/>
<path d="M240.097 380.305C240.097 380.305 251.617 381.956 257.246 386.647" stroke="#FF2633" stroke-width="0.844939" stroke-miterlimit="10" stroke-linecap="round"/>
<path d="M240.097 393.448C240.097 393.448 249.244 393.448 254.891 398.139" stroke="#FF2633" stroke-width="0.844939" stroke-miterlimit="10" stroke-linecap="round"/>
<path d="M346.909 106.069C346.909 106.069 355.746 139.119 344.986 154.851C336.412 167.375 349.817 165.648 349.817 165.648C349.817 165.648 363.645 165.77 361.656 136.408C359.864 109.878 346.909 106.069 346.909 106.069Z" fill="#FFD550"/>
<path d="M274.497 2.23982C279.309 -0.846542 285.238 -0.508825 290.445 1.82706C300.482 6.32996 321.693 18.4597 331.468 25.4767C344.545 34.8577 355.024 42.644 364.489 51.359C370.296 56.7156 376.159 68.6764 371.609 80.2151C365.437 95.8815 354.264 118.752 327.772 129.156C320.323 132.074 309.357 130.169 303.381 124.841C285.444 108.893 252.226 76.2563 246.804 54.0983C246.27 51.8771 246.4 49.5478 247.179 47.4002C250.134 39.1824 258.568 12.437 274.497 2.23982Z" fill="#FF2633"/>
<path d="M251.523 76.1532C251.523 76.1532 254.243 64.8302 273.409 49.0794C276.927 46.1901 281.758 44.3889 286.017 45.9649C295.398 49.5297 311.543 58.6294 325.821 86.6506C326.866 88.8069 327.302 91.2082 327.08 93.5943C326.858 95.9804 325.988 98.2604 324.564 100.187C319.648 106.979 312.012 114.691 286.026 123.171L251.523 76.1532Z" fill="#FF2633"/>
<path d="M287.248 122.524C291.81 118.871 287.429 105.822 277.463 93.379C267.498 80.9357 255.722 73.8099 251.16 77.4631C246.598 81.1163 250.979 94.1652 260.944 106.609C270.91 119.052 282.686 126.178 287.248 122.524Z" fill="#0D0F44"/>
<path d="M285.792 48.8516C291.964 52.3787 316.879 68.8363 317.989 97.7032C317.989 102.144 316.879 112.581 307.997 114.357L299.115 117.688" stroke="white" stroke-linecap="round"/>
</svg>
