<svg xmlns="http://www.w3.org/2000/svg" width="485" height="244" fill="none"><g clip-path="url(#a)"><path fill="#fff" fill-opacity=".5" d="M392.901 199.944H.845a.837.837 0 0 1-.845-.847v-183c0-.474.372-.847.845-.847H392.9c50.781 0 92.099 41.43 92.099 92.347 0 50.918-41.318 92.347-92.099 92.347ZM1.69 198.25H392.9c49.852 0 90.409-40.667 90.409-90.653 0-49.986-40.557-90.653-90.409-90.653H1.69V198.25Z"/><path fill="#1A52B9" d="M69.286 244c25.199 0 45.627-20.483 45.627-45.75S94.485 152.5 69.286 152.5c-25.2 0-45.627 20.483-45.627 45.75S44.087 244 69.286 244Z"/><path fill="#FF5156" d="M250.105 30.5c8.399 0 15.209-6.828 15.209-15.25S258.504 0 250.105 0c-8.4 0-15.209 6.828-15.209 15.25s6.809 15.25 15.209 15.25Z"/><path stroke="#fff" stroke-miterlimit="10" d="M249.31 20.757v112.206"/></g><defs><clipPath id="a"><path fill="#fff" d="M0 0h485v244H0z"/></clipPath></defs></svg>