<svg width="1616" height="173" viewBox="0 0 1616 173" fill="none" xmlns="http://www.w3.org/2000/svg">
<path d="M44.1066 6C44.1066 8.94552 46.4945 11.3333 49.44 11.3333C52.3855 11.3333 54.7733 8.94552 54.7733 6C54.7733 3.05448 52.3855 0.666667 49.44 0.666667C46.4945 0.666667 44.1066 3.05448 44.1066 6ZM407.656 6C407.656 8.94552 410.044 11.3333 412.989 11.3333C415.935 11.3333 418.323 8.94552 418.323 6C418.323 3.05448 415.935 0.666667 412.989 0.666667C410.044 0.666667 407.656 3.05448 407.656 6ZM49.44 5H16V7H49.44V5ZM0 21V157H2V21H0ZM16 173H1600V171H16V173ZM1616 157V25.8802H1614V157H1616ZM1616 25.8802V21H1614V25.8802H1616ZM1600 5H412.989V7H1600V5ZM1616 21C1616 12.1634 1608.84 5 1600 5V7C1607.73 7 1614 13.268 1614 21H1616ZM1600 173C1608.84 173 1616 165.837 1616 157H1614C1614 164.732 1607.73 171 1600 171V173ZM0 157C0 165.837 7.16344 173 16 173V171C8.26801 171 2 164.732 2 157H0ZM16 5C7.16346 5 0 12.1634 0 21H2C2 13.268 8.26802 7 16 7V5Z" fill="white" fill-opacity="0.3"/>
</svg>
