<svg width="132" height="166" viewBox="0 0 132 166" fill="none" xmlns="http://www.w3.org/2000/svg">
<path d="M104.909 106.069C104.909 106.069 113.746 139.119 102.986 154.851C94.4116 167.375 107.817 165.648 107.817 165.648C107.817 165.648 121.645 165.77 119.656 136.408C117.864 109.878 104.909 106.069 104.909 106.069Z" fill="#FFD550"/>
<path d="M32.4967 2.23982C37.3092 -0.846542 43.238 -0.508825 48.4445 1.82706C58.4823 6.32996 79.6928 18.4597 89.4679 25.4767C102.545 34.8577 113.024 42.644 122.489 51.359C128.296 56.7156 134.159 68.6764 129.609 80.2151C123.437 95.8815 112.264 118.752 85.7717 129.156C78.3232 132.074 67.3567 130.169 61.381 124.841C43.4444 108.893 10.2261 76.2563 4.80384 54.0983C4.26954 51.8771 4.40003 49.5478 5.17908 47.4002C8.13411 39.1824 16.5677 12.437 32.4967 2.23982Z" fill="#FF2633"/>
<path d="M9.52271 76.1532C9.52271 76.1532 12.2432 64.8302 31.4087 49.0794C34.9266 46.1901 39.7579 44.3889 44.0169 45.9649C53.3979 49.5297 69.5427 58.6294 83.8206 86.6506C84.866 88.8069 85.3015 91.2082 85.08 93.5943C84.8584 95.9804 83.9882 98.2604 82.5636 100.187C77.6479 106.979 70.0117 114.691 44.0262 123.171L9.52271 76.1532Z" fill="#FF2633"/>
<path d="M45.248 122.524C49.8096 118.871 45.4289 105.822 35.4635 93.379C25.498 80.9357 13.7215 73.8099 9.15993 77.4631C4.59831 81.1163 8.97897 94.1652 18.9444 106.609C28.9098 119.052 40.6863 126.178 45.248 122.524Z" fill="#0D0F44"/>
<path d="M43.7917 48.8516C49.9642 52.3787 74.8791 68.8363 75.9893 97.7032C75.9893 102.144 74.8791 112.581 65.997 114.357L57.1149 117.688" stroke="white" stroke-linecap="round"/>
</svg>
