<svg width="144" height="116" viewBox="0 0 144 116" fill="none" xmlns="http://www.w3.org/2000/svg">
<path d="M137.936 87.5567L27.5815 115.235C26.5673 115.494 25.5111 115.545 24.4764 115.386C23.4418 115.227 22.45 114.86 21.5606 114.308C20.6712 113.756 19.9026 113.03 19.3009 112.173C18.6993 111.316 18.2769 110.347 18.0593 109.323L0.173382 25.6305C-0.0506996 24.5872 -0.0576505 23.5089 0.152961 22.4627C0.363573 21.4166 0.787241 20.425 1.3976 19.5497C2.00795 18.6743 2.79193 17.934 3.70075 17.3747C4.60957 16.8154 5.62377 16.4492 6.68024 16.2987L119.511 0.206164C121.464 -0.0791626 123.453 0.389351 125.074 1.51667C126.695 2.64399 127.827 4.3457 128.239 6.27658L143.626 78.3836C144.049 80.3517 143.693 82.4073 142.632 84.1181C141.571 85.8288 139.887 87.0615 137.936 87.5567Z" fill="#BEDDFA"/>
<path d="M143.703 78.7248C143.703 78.6137 143.703 78.5026 143.648 78.3836L143.544 78.0662C143.441 78.0662 133.617 81.0577 118.366 65.1001C101.258 47.2142 86.9744 48.6742 76.4444 51.9435C73.5063 52.9259 70.7384 54.358 68.2394 56.1889C65.0693 52.749 60.9667 50.3062 56.4319 49.1583C49.1077 47.1507 37.435 50.047 21.7313 57.7759C16.7797 60.2041 12.2091 62.7592 8.55095 64.9176L8.70965 65.6238C20.8981 58.4821 43.9736 46.4603 56.2494 49.8328C60.6321 50.9424 64.6003 53.2959 67.676 56.6094C60.582 61.8387 53.9799 70.2421 52.3611 78.8279C51.028 85.8903 53.2895 91.9924 58.9076 96.4837C60.2751 97.6705 62.0516 98.2769 63.8592 98.1739C64.4625 98.1227 65.0556 97.9864 65.6208 97.7692C70.3819 95.9521 73.8417 88.985 74.8177 83.0495C75.685 77.2274 75.2432 71.2853 73.5243 65.6555C72.5116 62.3841 70.8671 59.3431 68.6838 56.7046C71.1041 54.9404 73.7802 53.5569 76.619 52.6022C86.9347 49.3884 100.988 47.968 117.882 65.5841C133.086 81.4783 142.83 78.9866 143.703 78.7248ZM72.8974 65.8619C74.592 71.3929 75.0285 77.2328 74.1749 82.9542C73.2465 88.5089 69.8265 95.4125 65.3986 97.1265C63.3514 97.92 61.3199 97.5074 59.36 95.9441C56.7728 94.0272 54.7963 91.4017 53.6698 88.3853C52.5432 85.3688 52.3146 82.0906 53.0118 78.947C54.5988 70.496 61.1216 62.2275 68.0887 57.1014C70.2581 59.6727 71.8929 62.651 72.8974 65.8619Z" fill="white"/>
</svg>
