<svg width="74" height="74" viewBox="0 0 74 74" fill="none" xmlns="http://www.w3.org/2000/svg">
<path d="M28.0695 1.38244L40.9685 11.5609C41.6532 12.1058 42.4602 12.4759 43.3198 12.6393C44.1795 12.8028 45.066 12.7546 45.9029 12.499L61.5974 7.64898C62.5598 7.34941 63.5868 7.32548 64.5621 7.5799C65.5374 7.83432 66.4219 8.3569 67.1154 9.0884C67.8088 9.81991 68.2834 10.7311 68.4853 11.7186C68.6873 12.7061 68.6085 13.7304 68.2579 14.6754L62.5543 30.0791C62.25 30.8996 62.1499 31.7819 62.2627 32.6497C62.3754 33.5176 62.6977 34.3449 63.2016 35.0604L72.667 48.4941C73.2475 49.3168 73.586 50.2856 73.6444 51.2908C73.7028 52.296 73.4787 53.2974 72.9975 54.1818C72.5162 55.0662 71.797 55.7983 70.9213 56.2952C70.0455 56.792 69.0482 57.0339 68.0422 56.9933L51.6253 56.3366C50.7502 56.3006 49.8795 56.4783 49.0884 56.8542C48.2973 57.2301 47.6097 57.7931 47.0849 58.4943L37.2348 71.6278C36.6297 72.426 35.8144 73.0399 34.8801 73.4009C33.9458 73.7619 32.9294 73.8556 31.9449 73.6716C30.9603 73.4875 30.0465 73.033 29.3057 72.3588C28.5649 71.6847 28.0264 70.8176 27.7506 69.8547L23.2758 54.0008C23.0374 53.1591 22.5989 52.3877 21.9978 51.7522C21.3966 51.1168 20.6507 50.6362 19.8236 50.3515L4.29792 45.0888C3.34399 44.765 2.4998 44.1805 1.86097 43.4015C1.22213 42.6226 0.814194 41.6804 0.683356 40.6815C0.552518 39.6826 0.704009 38.6671 1.12067 37.7499C1.53733 36.8327 2.20251 36.0505 3.04086 35.4919L16.7091 26.3736C17.438 25.8896 18.0377 25.235 18.4562 24.4666C18.8747 23.6983 19.0994 22.8394 19.1106 21.9645L19.3076 5.53824C19.3184 4.52729 19.6131 3.53973 20.158 2.68817C20.703 1.83661 21.4763 1.15535 22.3898 0.722093C23.3033 0.288832 24.3201 0.120996 25.3244 0.237753C26.3286 0.354511 27.2798 0.751165 28.0695 1.38244Z" fill="#FFD550"/>
</svg>
